HIERARCHY
ROOT Hips
{
	OFFSET 0.00000 0.00000 0.00000
	CHANNELS 6 Xposition Yposition Zposition Zrotation Yrotation Xrotation 
	JOINT LHipJoint
	{
		OFFSET 0 0 0
		CHANNELS 3 Zrotation Yrotation Xrotation
		JOINT LeftUpLeg
		{
			OFFSET 1.58895 -1.83665 0.71753
			CHANNELS 3 Zrotation Yrotation Xrotation
			JOINT LeftLeg
			{
				OFFSET 2.50528 -6.88321 0.00000
				CHANNELS 3 Zrotation Yrotation Xrotation
				JOINT LeftFoot
				{
					OFFSET 2.63244 -7.23257 0.00000
					CHANNELS 3 Zrotation Yrotation Xrotation
					JOINT LeftToeBase
					{
						OFFSET 0.23691 -0.65090 1.72750
						CHANNELS 3 Zrotation Yrotation Xrotation
						End Site
						{
							OFFSET 0.00000 -0.00000 0.92561
						}
					}
				}
			}
		}
	}
	JOINT RHipJoint
	{
		OFFSET 0 0 0
		CHANNELS 3 Zrotation Yrotation Xrotation
		JOINT RightUpLeg
		{
			OFFSET -1.51435 -1.83665 0.71753
			CHANNELS 3 Zrotation Yrotation Xrotation
			JOINT RightLeg
			{
				OFFSET -2.54551 -6.99375 0.00000
				CHANNELS 3 Zrotation Yrotation Xrotation
				JOINT RightFoot
				{
					OFFSET -2.66027 -7.30903 0.00000
					CHANNELS 3 Zrotation Yrotation Xrotation
					JOINT RightToeBase
					{
						OFFSET -0.22981 -0.63138 2.03959
						CHANNELS 3 Zrotation Yrotation Xrotation
						End Site
						{
							OFFSET -0.00000 -0.00000 1.07060
						}
					}
				}
			}
		}
	}
	JOINT LowerBack
	{
		OFFSET 0 0 0
		CHANNELS 3 Zrotation Yrotation Xrotation
		JOINT Spine
		{
			OFFSET -0.02651 1.86275 -0.11152
			CHANNELS 3 Zrotation Yrotation Xrotation
			JOINT Spine1
			{
				OFFSET 0.01019 1.86224 0.04087
				CHANNELS 3 Zrotation Yrotation Xrotation
				JOINT Neck
				{
					OFFSET 0 0 0
					CHANNELS 3 Zrotation Yrotation Xrotation
					JOINT Neck1
					{
						OFFSET -0.01926 1.80512 0.08867
						CHANNELS 3 Zrotation Yrotation Xrotation
						JOINT Head
						{
							OFFSET 0.05516 1.76451 -0.38475
							CHANNELS 3 Zrotation Yrotation Xrotation
							End Site
							{
								OFFSET 0.01592 1.82587 -0.14001
							}
						}
					}
				}
				JOINT LeftShoulder
				{
					OFFSET 0 0 0
					CHANNELS 3 Zrotation Yrotation Xrotation
					JOINT LeftArm
					{
						OFFSET 3.47116 1.51376 0.14491
						CHANNELS 3 Zrotation Yrotation Xrotation
						JOINT LeftForeArm
						{
							OFFSET 4.78095 -0.00000 0.00000
							CHANNELS 3 Zrotation Yrotation Xrotation
							JOINT LeftHand
							{
								OFFSET 3.58615 -0.00000 -0.00000
								CHANNELS 3 Zrotation Yrotation Xrotation
								JOINT LeftFingerBase
								{
									OFFSET 0 0 0
									CHANNELS 3 Zrotation Yrotation Xrotation
									JOINT LeftHandIndex1
									{
										OFFSET 0.65981 -0.00000 0.00000
										CHANNELS 3 Zrotation Yrotation Xrotation
										End Site
										{
											OFFSET 0.53196 -0.00000 0.00000
										}
									}
								}
								JOINT LThumb
								{
									OFFSET 0 0 0
									CHANNELS 3 Zrotation Yrotation Xrotation
									End Site
									{
										OFFSET 0.54008 -0.00000 0.54008
									}
								}
							}
						}
					}
				}
				JOINT RightShoulder
				{
					OFFSET 0 0 0
					CHANNELS 3 Zrotation Yrotation Xrotation
					JOINT RightArm
					{
						OFFSET -3.31725 1.61216 0.35156
						CHANNELS 3 Zrotation Yrotation Xrotation
						JOINT RightForeArm
						{
							OFFSET -4.48913 -0.00000 0.00000
							CHANNELS 3 Zrotation Yrotation Xrotation
							JOINT RightHand
							{
								OFFSET -3.70510 -0.00000 0.00000
								CHANNELS 3 Zrotation Yrotation Xrotation
								JOINT RightFingerBase
								{
									OFFSET 0 0 0
									CHANNELS 3 Zrotation Yrotation Xrotation
									JOINT RightHandIndex1
									{
										OFFSET -0.44914 -0.00000 0.00000
										CHANNELS 3 Zrotation Yrotation Xrotation
										End Site
										{
											OFFSET -0.36211 -0.00000 0.00000
										}
									}
								}
								JOINT RThumb
								{
									OFFSET 0 0 0
									CHANNELS 3 Zrotation Yrotation Xrotation
									End Site
									{
										OFFSET -0.36763 -0.00000 0.36763
									}
								}
							}
						}
					}
				}
			}
		}
	}
}
MOTION
Frames: 10
Frame Time: .0083333
-0.7323 18.6632 5.7877 0 0 0 0 0 0 -21 0 0 0 0 0 0 0 0 0 0 0 0 0 0 21 0 0 0 0 0 0 0 0 0 0 0 0 0 0 0 0 0 0 0 0 0 0 -16 0 0 21 0 0 11 0 0 0 -8 0 0 0 0 0 0 0 0 0 0 0 0 0 0 0 0 0 0 0 0 8 0 0 0 0 0 0 0 0 0 0 0 0 0 0 0 0 0
-0.7323 18.6632 5.7877 -5.0986 -1.1613 1.1919 0.0000 0.0000 0.0000 -8.6938 -6.5498 -4.0966 1.6858 8.1784 23.2573 1.5734 1.6735 -24.3595 8.5549 -16.5126 -54.5378 0.0000 0.0000 0.0000 19.3037 1.7466 8.4845 0.0000 -0.0000 0.0000 -0.9013 -5.4307 -20.6942 -0.3944 4.0323 -11.1675 1.9574 0.4915 2.1588 1.1342 0.7657 -2.1838 0.0307 0.3477 -3.4464 -0.0228 -1.0381 -10.9296 2.6284 -2.0114 20.5983 0.6725 -0.6967 8.2127 -0.0000 0.0000 0.0000 -88.2929 16.7018 23.1396 25.2313 -36.4395 -8.4269 -0.0000 -0.0000 4.5401 5.3362 -27.9453 -2.5064 -7.1250 0.0000 -0.0000 -14.7435 2.7154 14.5244 -0.0000 0.0000 0.0000 87.8448 -19.9724 24.5845 -25.1191 36.3255 -8.3603 0.0000 0.0000 14.6504 -0.5705 -36.9620 0.3430 7.1250 -0.0000 -0.0000 40.2863 -62.3016 -18.5205
-0.7312 18.6626 5.7914 -5.1400 -1.1834 1.1841 0.0000 0.0000 0.0000 -8.6618 -6.5629 -4.0753 1.6902 8.1885 23.2882 1.5782 1.6967 -24.4051 8.5637 -16.5186 -54.5687 0.0000 0.0000 0.0000 19.3470 1.7616 8.5101 0.0000 0.0000 -0.0000 -0.9023 -5.4203 -20.6968 -0.4017 4.0689 -11.2706 2.0096 0.5127 2.1248 1.1321 0.7952 -2.2041 -0.0019 0.3610 -3.4471 0.0194 -1.0477 -10.9632 2.5596 -2.0192 20.6207 0.6416 -0.7033 8.2253 0.0000 0.0000 0.0000 -88.2314 16.6987 23.1805 25.2746 -36.4834 -8.4526 -0.0000 -0.0000 4.4999 5.3854 -27.8662 -2.5230 -7.1250 0.0000 -0.0000 -14.7136 2.7870 14.4731 0.0000 0.0000 0.0000 87.8647 -19.9991 24.5683 -25.1557 36.3627 -8.3820 0.0000 0.0000 14.7025 -0.4493 -37.0060 0.2704 7.1250 -0.0000 -0.0000 40.4579 -62.3038 -18.6158
-0.7298 18.6623 5.7948 -5.1832 -1.2082 1.1826 0.0000 0.0000 0.0000 -8.6232 -6.5555 -4.0656 1.6931 8.1952 23.3085 1.5856 1.6849 -24.4557 8.5635 -16.5185 -54.5679 0.0000 0.0000 0.0000 19.3901 1.7815 8.5305 0.0000 -0.0000 0.0000 -0.9047 -5.4042 -20.7087 -0.3985 4.0532 -11.2264 2.0695 0.5331 2.0758 1.1299 0.8235 -2.2171 -0.0386 0.3736 -3.4317 -0.0185 -1.0833 -11.0182 2.5905 -2.0697 20.6647 0.6529 -0.7261 8.2516 0.0000 -0.0000 0.0000 -88.1589 16.6855 23.2559 25.3207 -36.5300 -8.4801 -0.0000 -0.0000 4.3881 5.3835 -27.9118 -2.5259 -7.1250 0.0000 -0.0000 -14.7155 2.7432 14.4872 0.0000 -0.0000 0.0000 87.8982 -20.0241 24.5517 -25.2059 36.4137 -8.4118 0.0000 0.0000 14.7294 -0.4046 -37.0805 0.2439 7.1250 -0.0000 -0.0000 40.5937 -62.3488 -18.7327
-0.7288 18.6623 5.7974 -5.2105 -1.2181 1.1972 0.0000 0.0000 0.0000 -8.5922 -6.5340 -4.0880 1.6956 8.2009 23.3261 1.5888 1.6588 -24.4691 8.5582 -16.5148 -54.5492 0.0000 0.0000 0.0000 19.4150 1.7942 8.5260 0.0000 -0.0000 0.0000 -0.9076 -5.3889 -20.7263 -0.3866 3.9927 -11.0560 2.1023 0.5421 2.0226 1.1217 0.8350 -2.2264 -0.0656 0.3785 -3.4106 0.0133 -1.0765 -11.0448 2.5568 -2.0587 20.6434 0.6373 -0.7218 8.2485 0.0000 0.0000 0.0000 -88.0814 16.6870 23.3363 25.4036 -36.6137 -8.5295 -0.0000 -0.0000 4.2568 5.3903 -27.9297 -2.5306 -7.1250 0.0000 -0.0000 -14.7119 2.7252 14.4884 0.0000 0.0000 0.0000 87.9087 -20.0343 24.6016 -25.2828 36.4917 -8.4575 0.0000 0.0000 14.6562 -0.3218 -37.2249 0.1947 7.1250 -0.0000 -0.0000 40.8541 -62.4366 -18.9592
-0.7275 18.6622 5.7992 -5.2168 -1.1994 1.1914 0.0000 0.0000 0.0000 -8.5954 -6.5648 -4.0734 1.6973 8.2048 23.3380 1.5905 1.6773 -24.4894 8.5543 -16.5122 -54.5355 0.0000 0.0000 0.0000 19.4167 1.7727 8.5316 0.0000 0.0000 -0.0000 -0.9102 -5.3751 -20.7413 -0.3846 3.9826 -11.0278 2.1037 0.5357 2.0134 1.1182 0.8263 -2.2351 -0.0694 0.3741 -3.4144 0.1049 -1.0502 -11.0195 2.4495 -2.0144 20.5609 0.5907 -0.7055 8.2134 0.0000 0.0000 0.0000 -88.0347 16.7074 23.3555 25.5088 -36.7196 -8.5923 -0.0000 -0.0000 4.2122 5.4688 -27.9453 -2.5689 -7.1250 0.0000 -0.0000 -14.6665 2.7024 14.4468 0.0000 0.0000 0.0000 87.8829 -20.0256 24.6748 -25.3310 36.5404 -8.4862 0.0000 0.0000 14.5975 -0.3819 -37.2646 0.2312 7.1250 -0.0000 -0.0000 40.8462 -62.4822 -18.9986
-0.7259 18.6619 5.8009 -5.2012 -1.1661 1.1832 0.0000 0.0000 0.0000 -8.6252 -6.6209 -4.0511 1.6980 8.2065 23.3431 1.5953 1.6809 -24.5267 8.5535 -16.5116 -54.5326 0.0000 0.0000 0.0000 19.3939 1.7365 8.5338 0.0000 0.0000 -0.0000 -0.9070 -5.3906 -20.7213 -0.3961 4.0412 -11.1925 2.0758 0.5298 2.0287 1.1172 0.8183 -2.2556 -0.0546 0.3704 -3.4448 0.0900 -1.0553 -10.9896 2.4658 -2.0192 20.4766 0.5982 -0.7086 8.1801 -0.0000 0.0000 0.0000 -88.0232 16.7033 23.3098 25.5845 -36.7954 -8.6376 -0.0000 -0.0000 4.2396 5.4300 -27.9488 -2.5509 -7.1250 0.0000 -0.0000 -14.6891 2.7029 14.4705 -0.0000 0.0000 0.0000 87.8342 -20.0388 24.7649 -25.3685 36.5782 -8.5085 0.0000 0.0000 14.5724 -0.4978 -37.3021 0.3017 7.1250 -0.0000 -0.0000 40.7820 -62.5406 -19.0190
-0.7248 18.6615 5.8025 -5.1839 -1.1208 1.1789 0.0000 0.0000 0.0000 -8.6482 -6.6527 -4.0434 1.6981 8.2066 23.3434 1.5993 1.6608 -24.5484 8.5653 -16.5197 -54.5742 0.0000 0.0000 0.0000 19.3708 1.6887 8.5324 0.0000 0.0000 -0.0000 -0.9069 -5.3798 -20.7133 -0.3913 4.0168 -11.1239 2.0432 0.5253 2.0523 1.1144 0.8124 -2.2835 -0.0394 0.3678 -3.4874 -0.0060 -1.0741 -10.9641 2.5919 -2.0511 20.4000 0.6529 -0.7197 8.1526 -0.0000 -0.0000 0.0000 -88.0290 16.6646 23.2459 25.6335 -36.8445 -8.6670 -0.0000 -0.0000 4.2239 5.3039 -27.8463 -2.4830 -7.1250 0.0000 -0.0000 -14.7606 2.8141 14.5152 -0.0000 -0.0000 0.0000 87.7793 -20.0804 24.8638 -25.4309 36.6411 -8.5457 0.0000 0.0000 14.5335 -0.5493 -37.3495 0.3333 7.1250 -0.0000 -0.0000 40.7923 -62.5899 -19.0718
-0.7240 18.6611 5.8036 -5.1734 -1.0830 1.1554 0.0000 0.0000 0.0000 -8.6672 -6.6741 -4.0115 1.6976 8.2056 23.3403 1.6003 1.6746 -24.5612 8.5828 -16.5316 -54.6358 0.0000 0.0000 0.0000 19.3565 1.6415 8.5523 0.0000 -0.0000 0.0000 -0.9115 -5.3473 -20.7356 -0.3823 3.9706 -10.9941 2.0196 0.5183 2.0945 1.1043 0.8036 -2.3017 -0.0366 0.3634 -3.5303 -0.0405 -1.0775 -10.9252 2.6705 -2.0627 20.3033 0.6837 -0.7216 8.1146 0.0000 0.0000 0.0000 -87.9838 16.6529 23.2621 25.7000 -36.9109 -8.7068 -0.0000 -0.0000 4.0716 5.3746 -27.8677 -2.5180 -7.1250 0.0000 -0.0000 -14.7199 2.7867 14.4798 0.0000 0.0000 0.0000 87.7536 -20.0710 24.9283 -25.4446 36.6550 -8.5539 0.0000 0.0000 14.4564 -0.6160 -37.2832 0.3732 7.1250 -0.0000 -0.0000 40.6440 -62.5571 -18.9587
-0.7238 18.6607 5.8048 -5.1642 -1.0768 1.1267 0.0000 0.0000 0.0000 -8.6843 -6.6773 -3.9727 1.6972 8.2046 23.3372 1.5995 1.6867 -24.5603 8.5865 -16.5341 -54.6488 0.0000 0.0000 0.0000 19.3453 1.6232 8.5851 0.0000 0.0000 -0.0000 -0.9137 -5.3408 -20.7515 -0.3917 4.0185 -11.1288 1.9756 0.5166 2.1315 1.1044 0.8009 -2.3123 -0.0121 0.3629 -3.5628 -0.0464 -1.0751 -10.9333 2.6872 -2.0602 20.2513 0.6903 -0.7197 8.0989 0.0000 0.0000 0.0000 -87.9266 16.6708 23.3023 25.7793 -36.9899 -8.7545 -0.0000 -0.0000 3.9045 5.4358 -27.9593 -2.5545 -7.1250 0.0000 -0.0000 -14.6859 2.6922 14.4701 0.0000 0.0000 0.0000 87.7259 -20.0401 24.9850 -25.4440 36.6543 -8.5536 0.0000 0.0000 14.3836 -0.5658 -37.3087 0.3429 7.1250 -0.0000 -0.0000 40.7247 -62.5633 -19.0091
